HIERARCHY
ROOT Hips
{
	OFFSET 0.000000  0.463670  0.080341
	CHANNELS 6 Xposition Yposition Zposition Zrotation Yrotation Xrotation 
	JOINT LHipJoint
	{
		OFFSET 0 0 0
		CHANNELS 3 Zrotation Yrotation Xrotation
		JOINT LeftUpLeg
		{
			OFFSET 0.949434 -0.248378 0.086503
			CHANNELS 3 Zrotation Yrotation Xrotation
			JOINT LeftLeg
			{
				OFFSET -0.076513 -3.879421 -0.177038
				CHANNELS 3 Zrotation Yrotation Xrotation
				JOINT LeftFoot
				{
					OFFSET -0.188964 -3.680973 -0.122632
					CHANNELS 3 Zrotation Yrotation Xrotation
					JOINT LeftToeBase
					{
						OFFSET 0.055451 -0.524480 1.120382
						CHANNELS 3 Zrotation Yrotation Xrotation
						End Site
						{
							OFFSET 0.007944 -0.006006 0.139660
						}
					}
				}
			}
		}
	}
	JOINT RHipJoint
	{
		OFFSET 0 0 0
		CHANNELS 3 Zrotation Yrotation Xrotation
		JOINT RightUpLeg
		{
			OFFSET -0.949434 -0.248378 0.086503
			CHANNELS 3 Zrotation Yrotation Xrotation
			JOINT RightLeg
			{
				OFFSET 0.076513 -3.879421 -0.177038
				CHANNELS 3 Zrotation Yrotation Xrotation
				JOINT RightFoot
				{
					OFFSET 0.188964 -3.680973 -0.122632
					CHANNELS 3 Zrotation Yrotation Xrotation
					JOINT RightToeBase
					{
						OFFSET -0.055451 -0.524480 1.120382
						CHANNELS 3 Zrotation Yrotation Xrotation
						End Site
						{
							OFFSET -0.007944 -0.006006 0.139660
						}
					}
				}
			}
		}
	}
	JOINT LowerBack
	{
		OFFSET 0 0 0
		CHANNELS 3 Zrotation Yrotation Xrotation
		JOINT Spine
		{
			OFFSET 0.000000 0.677144 0.028277
			CHANNELS 3 Zrotation Yrotation Xrotation
			JOINT Spine1
			{
				OFFSET 0.000000 2.156116 -0.508617
				CHANNELS 3 Zrotation Yrotation Xrotation
				JOINT Neck
				{
					OFFSET 0 0 0
					CHANNELS 3 Zrotation Yrotation Xrotation
					JOINT Neck1
					{
						OFFSET 0.000000 1.781871 0.216275
						CHANNELS 3 Zrotation Yrotation Xrotation
						JOINT Head
						{
							OFFSET 0.000000 1.015906 -0.026879
							CHANNELS 3 Zrotation Yrotation Xrotation
							End Site
							{
								OFFSET 0.000000 0.339197 0.983632
							}
						}
					}
				}
				JOINT LeftShoulder
				{
					OFFSET 0 0 0
					CHANNELS 3 Zrotation Yrotation Xrotation
					JOINT LeftArm
					{
						OFFSET 1.565866 1.184736 0.289545
						CHANNELS 3 Zrotation Yrotation Xrotation
						JOINT LeftForeArm
						{
							OFFSET 1.930940 -0.176441 -0.109244
							CHANNELS 3 Zrotation Yrotation Xrotation
							JOINT LeftHand
							{
								OFFSET 2.263412 -0.058986 0.122483
								CHANNELS 3 Zrotation Yrotation Xrotation
								JOINT LeftFingerBase
								{
									OFFSET 0 0 0
									CHANNELS 3 Zrotation Yrotation Xrotation
									JOINT LeftHandIndex1
									{
										OFFSET 0.944218 0.017559 0.358417
										CHANNELS 3 Zrotation Yrotation Xrotation
										End Site
										{
											OFFSET 0.237801 -0.022714 0.035813
										}
									}
								}
								JOINT LThumb
								{
									OFFSET 0 0 0
									CHANNELS 3 Zrotation Yrotation Xrotation
									End Site
									{
										OFFSET 0.234930 -0.092931 0.244282
									}
								}
							}
						}
					}
				}
				JOINT RightShoulder
				{
					OFFSET 0 0 0
					CHANNELS 3 Zrotation Yrotation Xrotation
					JOINT RightArm
					{
						OFFSET -1.565866 1.184736 0.289545
						CHANNELS 3 Zrotation Yrotation Xrotation
						JOINT RightForeArm
						{
							OFFSET -1.930940 -0.176441 -0.109244
							CHANNELS 3 Zrotation Yrotation Xrotation
							JOINT RightHand
							{
								OFFSET -2.263412 -0.058986 0.122483
								CHANNELS 3 Zrotation Yrotation Xrotation
								JOINT RightFingerBase
								{
									OFFSET 0 0 0
									CHANNELS 3 Zrotation Yrotation Xrotation
									JOINT RightHandIndex1
									{
										OFFSET -0.944218 0.017559 0.358417
										CHANNELS 3 Zrotation Yrotation Xrotation
										End Site
										{
											OFFSET -0.237801 -0.022714 0.035813
										}
									}
								}
								JOINT RThumb
								{
									OFFSET 0 0 0
									CHANNELS 3 Zrotation Yrotation Xrotation
									End Site
									{
										OFFSET -0.234930 -0.092931 0.244282
									}
								}
							}
						}
					}
				}
			}
		}
	}
}
MOTION
Frames: 12
Frame Time: .0083333
0.898564 8.943757 -18.104973 0.000000 0.000000 0.000000 0.000000 0.000000 0.000000 0.000000 0.000000 0.000000 0.000000 0.000000 0.000000 0.000000 0.000000 0.000000 0.000000 0.000000 0.000000 0.000000 0.000000 0.000000 0.000000 0.000000 0.000000 0.000000 0.000000 0.000000 0.000000 0.000000 0.000000 0.000000 0.000000 0.000000 0.000000 0.000000 0.000000 0.000000 0.000000 0.000000 0.000000 0.000000 0.000000 0.000000 0.000000 0.000000 0.000000 0.000000 0.000000 0.000000 0.000000 0.000000 0.000000 0.000000 0.000000 0.000000 0.000000 0.000000 0.000000 0.000000 0.000000 0.000000 0.000000 0.000000 0.000000 0.000000 0.000000 0.000000 0.000000 0.000000 0.000000 0.000000 0.000000 0.000000 0.000000 0.000000 0.000000 0.000000 0.000000 0.000000 0.000000 0.000000 0.000000 0.000000 0.000000 0.000000 0.000000 0.000000 0.000000 0.000000 0.000000 0.000000 0.000000 0.000000
0.898564 8.943757 -18.104973 -4.762500 5.418200 18.735100 0.000000 0.000000 0.000000 0.243999 -16.378500 -33.952499 4.516500 12.817700 38.689899 4.410200 11.528700 -44.605499 0.155100 2.537300 6.993100 0.000000 0.000000 0.000000 -7.221000 24.862200 -65.871300 -5.280200 -13.692500 42.019501 4.752500 -36.072300 -24.029800 -4.533400 -12.838200 38.765900 2.367900 0.747100 -6.642500 1.037300 1.036200 -10.146200 -0.230800 0.407700 -6.880000 -1.235800 -1.048500 5.044200 4.904000 -3.165300 19.699200 1.894800 -0.799400 5.629700 -0.000000 -0.000000 0.000000 38.889297 -23.651600 -48.699600 16.436899 -26.109400 -3.836200 -0.000000 -0.000000 18.419500 -5.692200 18.094601 -1.773200 -7.125000 0.000000 -0.000000 -31.085100 45.536301 -0.456500 -0.000000 -0.000000 0.000000 -32.844299 25.632500 -40.956799 -14.270800 23.120501 -2.933600 0.000000 0.000000 6.030900 8.173400 5.419400 0.777200 7.125000 -0.000000 -0.000000 25.261600 -24.344801 13.953800
0.899282 8.946464 -18.097569 -4.675500 5.600800 18.754499 0.000000 0.000000 0.000000 0.116400 -16.258101 -33.857700 4.485500 12.779800 38.549702 4.358800 11.497300 -44.375000 0.143900 2.444900 6.736900 0.000000 0.000000 0.000000 -7.619000 24.981001 -65.938400 -5.289900 -13.703000 42.060501 4.476600 -35.627300 -25.534100 -4.642800 -12.969900 39.255798 2.254100 0.645100 -7.061000 1.105400 0.883400 -9.869300 -0.092300 0.348100 -6.345200 -1.257300 -1.048200 5.097100 4.781700 -3.093200 19.350700 1.843700 -0.794000 5.418400 0.000000 0.000000 0.000000 40.658798 -23.755199 -50.863998 16.899900 -26.725700 -4.042200 -0.000000 -0.000000 17.781300 -5.085100 18.094601 -1.583100 -7.125000 0.000000 -0.000000 -30.573799 45.612701 -0.510900 0.000000 0.000000 0.000000 -34.669201 25.822399 -43.335602 -14.498700 23.443100 -3.023700 0.000000 0.000000 6.175800 8.279900 5.660700 0.822400 7.125000 -0.000000 -0.000000 25.283800 -24.120701 14.117300
0.900773 8.948343 -18.092873 -4.695100 5.921700 18.869900 0.000000 0.000000 0.000000 0.167700 -16.180201 -33.992802 4.472700 12.764100 38.491798 4.251500 11.716000 -44.040901 0.102000 2.059800 5.670900 0.000000 0.000000 0.000000 -8.069400 25.184401 -66.125801 -5.293300 -13.706600 42.074699 4.368800 -35.523399 -26.360800 -4.660400 -12.990900 39.334301 2.456500 0.589200 -6.497600 1.036500 0.836100 -10.387300 -0.283800 0.297100 -7.231500 -1.203500 -1.099600 5.711100 4.781300 -3.185200 19.414902 1.820600 -0.830900 5.303600 -0.000000 0.000000 0.000000 42.155102 -24.409800 -51.715900 17.462799 -27.463900 -4.298600 -0.000000 -0.000000 16.690300 -5.162900 17.464800 -1.553300 -7.125000 0.000000 -0.000000 -30.330400 45.055698 -0.046100 -0.000000 0.000000 0.000000 -35.684502 26.089100 -44.271999 -14.854100 23.942400 -3.166500 0.000000 0.000000 6.239100 8.675700 5.990700 0.912400 7.125000 -0.000000 -0.000000 25.480700 -23.805599 14.463100
0.899779 8.949061 -18.088454 -4.628700 6.303800 19.042400 0.000000 0.000000 0.000000 0.170300 -16.171400 -34.146599 4.453200 12.740300 38.403900 4.152500 11.782800 -43.658401 0.069000 1.694500 4.662200 0.000000 0.000000 0.000000 -8.743900 25.487900 -66.401703 -5.305000 -13.719200 42.124100 4.149600 -35.340199 -27.960100 -4.836100 -13.196800 40.109798 2.548000 0.565600 -6.178000 0.888800 0.819400 -10.778200 -0.493300 0.267500 -7.845500 -1.152500 -1.211300 6.219800 4.890400 -3.403700 19.332802 1.822300 -0.906300 5.147301 0.000000 0.000000 0.000000 43.782101 -25.183901 -52.663101 18.092800 -28.275801 -4.593100 -0.000000 -0.000000 15.416000 -4.965200 17.243401 -1.475200 -7.125000 0.000000 -0.000000 -30.058001 44.886902 0.092600 0.000000 0.000000 0.000000 -36.659203 26.171400 -45.144699 -15.224800 24.458300 -3.318500 0.000000 0.000000 5.997400 8.658900 6.089400 0.925500 7.125000 -0.000000 -0.000000 25.449600 -23.716101 14.501000
0.898287 8.948895 -18.084310 -4.641100 6.378800 19.233101 0.000000 0.000000 0.000000 0.276699 -16.254000 -34.326500 4.443200 12.727900 38.358200 4.127700 11.758100 -43.539398 0.054800 1.510700 4.155200 0.000000 0.000000 0.000000 -8.978800 25.606800 -66.635696 -5.308600 -13.723200 42.139599 3.816700 -34.801899 -29.201799 -5.130100 -13.528800 41.381699 2.458500 0.518700 -6.080800 0.976500 0.767200 -10.818900 -0.351500 0.251500 -7.949600 -1.166400 -1.188700 5.877700 4.835600 -3.345500 19.292900 1.808400 -0.887200 5.206200 -0.000000 0.000000 0.000000 45.244099 -25.424900 -54.202702 18.706301 -29.052000 -4.887400 -0.000000 -0.000000 14.550700 -4.478700 17.239100 -1.329800 -7.125000 0.000000 -0.000000 -29.647400 44.942200 0.046500 -0.000000 0.000000 0.000000 -38.178101 26.244900 -46.185001 -15.664600 25.063801 -3.502700 0.000000 0.000000 4.794900 8.151900 5.868500 0.839100 7.125000 -0.000000 -0.000000 25.156300 -23.935200 14.152200
0.897735 8.948508 -18.079281 -4.402300 6.617200 19.591299 0.000000 0.000000 0.000000 0.129200 -16.342100 -34.658199 4.432500 12.714700 38.309700 4.025900 11.809800 -43.132198 0.039900 1.288800 3.543900 0.000000 0.000000 0.000000 -8.882900 24.856800 -67.136002 -5.316600 -13.731700 42.173199 3.649200 -34.261600 -28.949499 -5.347600 -13.764900 42.303799 2.257200 0.444000 -6.591500 0.918300 0.656500 -11.059500 -0.296000 0.209600 -7.928000 -1.096600 -1.173200 7.211200 4.786700 -3.281500 18.840099 1.771600 -0.878200 4.634300 -0.000000 0.000000 0.000000 46.605900 -25.990101 -55.201801 19.374300 -29.881100 -5.216000 -0.000000 -0.000000 13.724300 -4.343800 17.062300 -1.276800 -7.125000 0.000000 -0.000000 -29.450399 44.803699 0.156800 -0.000000 0.000000 0.000000 -39.222603 26.374100 -46.641602 -16.204901 25.797701 -3.734700 0.000000 0.000000 3.587100 8.219800 5.735600 0.827100 7.125000 -0.000000 -0.000000 25.228399 -24.054199 14.123300
0.898122 8.947403 -18.073867 -4.361200 6.741400 19.796000 0.000000 0.000000 0.000000 0.150200 -16.383699 -34.862202 4.432700 12.714900 38.310398 4.014300 11.750900 -43.049702 0.033300 1.178600 3.240400 0.000000 0.000000 0.000000 -8.522300 24.266300 -67.406197 -5.310700 -13.725400 42.148499 3.728200 -34.201500 -28.027100 -5.399700 -13.820300 42.522202 2.275800 0.382800 -6.403900 0.914800 0.582800 -11.165300 -0.310600 0.168600 -8.155400 -1.105200 -1.194900 6.837700 4.730800 -3.304700 19.002102 1.749500 -0.890500 4.809200 -0.000000 -0.000000 0.000000 48.052799 -26.249100 -56.557800 20.045300 -30.696899 -5.554400 -0.000000 -0.000000 13.009800 -4.229700 16.682199 -1.216200 -7.125000 0.000000 -0.000000 -29.177401 44.483898 0.408100 -0.000000 -0.000000 0.000000 -40.522499 26.682199 -48.577702 -16.559401 26.273300 -3.890300 0.000000 0.000000 3.542600 8.615400 5.979600 0.904300 7.125000 -0.000000 -0.000000 25.442900 -23.817801 14.428500
0.899171 8.944806 -18.067072 -4.400200 6.940500 19.970501 0.000000 0.000000 0.000000 0.256800 -16.418600 -35.021099 4.430900 12.712800 38.302601 4.048100 11.502900 -43.060001 0.021200 0.940900 2.586100 0.000000 0.000000 0.000000 -8.039100 23.634600 -67.631897 -5.306400 -13.720700 42.130100 3.686800 -33.921902 -27.475700 -5.501700 -13.927500 42.947701 2.393500 0.248400 -6.268400 1.008100 0.413200 -11.252100 -0.276400 0.076700 -8.335800 -1.437600 -1.163700 6.931500 4.951600 -3.247200 18.727798 1.906000 -0.893100 4.651400 0.000000 0.000000 0.000000 49.327900 -26.456100 -58.015202 20.728300 -31.509899 -5.907300 -0.000000 -0.000000 12.591700 -4.255700 16.300900 -1.196500 -7.125000 0.000000 -0.000000 -29.024700 44.145802 0.671800 0.000000 0.000000 0.000000 -41.952599 27.292601 -50.914799 -16.846399 26.654900 -4.018200 0.000000 0.000000 3.780100 8.808100 6.163100 0.953100 7.125000 -0.000000 -0.000000 25.533701 -23.643600 14.608600
0.898398 8.943536 -18.060497 -4.342300 7.155100 20.168900 0.000000 0.000000 0.000000 0.256800 -16.368000 -35.205700 4.432300 12.714500 38.308899 4.072100 11.169200 -42.984100 0.019200 0.894600 2.458800 0.000000 0.000000 0.000000 -7.639300 22.958599 -67.857101 -5.298300 -13.712000 42.095798 3.383700 -33.093102 -27.664499 -5.782600 -14.214300 44.102699 2.490300 0.209700 -5.436600 0.882900 0.403700 -12.022900 -0.461700 0.041200 -9.694400 -2.187700 -1.320200 9.033501 5.922200 -3.626000 17.835602 2.373700 -1.080400 3.763900 -0.000000 0.000000 0.000000 50.496700 -27.616899 -58.650398 21.408600 -32.302200 -6.266900 -0.000000 -0.000000 12.090400 -3.913600 15.978400 -1.078900 -7.125000 0.000000 -0.000000 -28.593700 43.901199 0.849400 -0.000000 0.000000 0.000000 -42.337002 27.729700 -50.493999 -17.478100 27.483700 -4.305600 0.000000 0.000000 2.288300 8.720500 5.919000 0.906200 7.125000 -0.000000 -0.000000 25.525000 -23.869400 14.451300
0.899226 8.943536 -18.052541 -4.172400 7.372000 20.384701 0.000000 0.000000 0.000000 0.109900 -16.278999 -35.368099 4.428400 12.709700 38.291199 4.034100 10.956700 -42.705700 0.012800 0.731300 2.009700 0.000000 0.000000 0.000000 -7.354700 22.245399 -68.123596 -5.299800 -13.713700 42.102402 3.168700 -32.434200 -27.635599 -5.958200 -14.387700 44.813801 2.328500 0.046300 -5.503100 0.916400 0.176100 -11.804400 -0.330700 -0.052200 -9.410100 -2.006800 -1.280000 7.803900 5.816000 -3.580300 17.963501 2.305800 -1.028800 4.106200 0.000000 0.000000 0.000000 51.963799 -27.417999 -60.267799 22.049500 -33.032902 -6.612800 -0.000000 -0.000000 11.692700 -3.528100 15.774500 -0.960200 -7.125000 0.000000 -0.000000 -28.181400 43.764900 0.938700 0.000000 0.000000 0.000000 -43.753201 27.757200 -52.496201 -18.012400 28.173100 -4.555100 0.000000 0.000000 1.407200 8.641800 5.844300 0.886600 7.125000 -0.000000 -0.000000 25.487900 -23.940399 14.377900
0.900829 8.941271 -18.042045 -4.148300 7.428500 20.517300 0.000000 0.000000 0.000000 0.089800 -16.157801 -35.452301 4.417900 12.696700 38.243401 4.011300 10.797500 -42.521400 0.006600 0.525500 1.444000 0.000000 0.000000 0.000000 -6.936100 21.722000 -68.282402 -5.308400 -13.722900 42.138401 2.894200 -31.657499 -27.872101 -6.256300 -14.672200 46.001900 2.367700 0.014400 -5.690900 0.857200 0.128800 -12.016900 -0.412800 -0.084400 -9.544900 -1.955300 -1.299000 8.742701 5.910200 -3.642100 17.699902 2.318400 -1.053900 3.761200 -0.000000 -0.000000 0.000000 53.166500 -27.800800 -60.570202 22.722700 -33.784199 -6.983500 -0.000000 -0.000000 10.834200 -3.154100 15.594200 -0.848700 -7.125000 0.000000 -0.000000 -27.789900 43.647202 1.011400 -0.000000 -0.000000 0.000000 -44.500599 28.171200 -53.264900 -18.492100 28.782700 -4.783800 0.000000 0.000000 0.745600 8.378300 5.885000 0.865200 7.125000 -0.000000 -0.000000 25.304100 -23.912399 14.269200
